<?xml version="1.0" standalone="no"?>
<!DOCTYPE svg PUBLIC "-//W3C//DTD SVG 20010904//EN"
 "http://www.w3.org/TR/2001/REC-SVG-20010904/DTD/svg10.dtd">
<svg version="1.0" xmlns="http://www.w3.org/2000/svg"
 width="512.000000pt" height="512.000000pt" viewBox="0 0 512.000000 512.000000"
 preserveAspectRatio="xMidYMid meet">
<metadata>
Created by potrace 1.14, written by Peter Selinger 2001-2017
</metadata>
<g transform="translate(0.000000,512.000000) scale(0.100000,-0.100000)"
fill="#000000" stroke="none">
<path d="M0 2560 l0 -2560 835 0 c459 0 835 3 835 6 0 4 -101 608 -225 1343
-444 2642 -407 2413 -402 2531 9 194 75 340 216 480 91 91 191 152 301 184 30
9 406 75 835 147 734 123 790 131 955 136 270 9 485 -22 742 -107 391 -129
750 -380 1000 -700 l28 -35 0 568 0 567 -2560 0 -2560 0 0 -2560z"/>
<path d="M3360 3353 c-74 -8 -696 -114 -712 -121 -14 -6 -6 -69 89 -627 57
-341 106 -621 108 -623 5 -5 677 106 750 125 159 39 328 178 399 325 191 398
-53 857 -488 917 -43 6 -85 10 -94 9 -9 0 -33 -3 -52 -5z"/>
<path d="M5075 1398 c-64 -84 -252 -269 -353 -346 -232 -178 -505 -311 -781
-382 -42 -10 -249 -48 -460 -84 -211 -36 -386 -68 -388 -70 -3 -3 14 -120 38
-260 l42 -256 974 0 973 0 0 725 c0 399 -1 725 -3 725 -2 0 -21 -23 -42 -52z"/>
</g>
</svg>
