<svg width="372" height="213" viewBox="0 0 372 213" fill="none" xmlns="http://www.w3.org/2000/svg">
    <path d="M0 107.318C0.432275 66.5736 -3.18802 27.2635 48.0906 14.4667C86.644 4.8624 113.823 1.99463 161.86 0.425477C198.063 -0.737864 232.699 0.696023 268.767 2.18402C316.02 4.13194 369.676 12.627 371.513 64.3822C372.945 104.639 371.513 138.809 363.246 165.403C351.142 204.335 316.803 204.551 286.895 208.258C252.935 212.478 161.428 213.371 111.635 211.775C83.1588 210.855 40.4717 208.42 27.2603 199.303C12.1577 188.86 8.13217 179.715 5.02519 163.97C1.97225 148.576 1.40489 144.355 0 107.291V107.318Z" fill="white" style="mix-blend-mode:multiply"/>
</svg>
